<?xml version="1.0" encoding="UTF-8"?>
<svg xmlns="http://www.w3.org/2000/svg" id="Layer_1" data-name="Layer 1" viewBox="0 0 24 24">
  <path d="M18,16.5c0,.276-.224,.5-.5,.5H6.5c-.276,0-.5-.224-.5-.5s.224-.5,.5-.5h11c.276,0,.5,.224,.5,.5Zm-.5,2.5H6.5c-.276,0-.5,.224-.5,.5s.224,.5,.5,.5h11c.276,0,.5-.224,.5-.5s-.224-.5-.5-.5ZM7,8c0-1.103,.897-2,2-2s2,.897,2,2-.897,2-2,2-2-.897-2-2Zm1,0c0,.551,.448,1,1,1s1-.449,1-1-.448-1-1-1-1,.449-1,1Zm-1.602,5.99c.265,.054,.535-.117,.591-.388,.192-.928,1.038-1.602,2.011-1.602s1.818,.673,2.011,1.602c.049,.236,.257,.398,.488,.398,.034,0,.068-.003,.103-.01,.271-.056,.444-.321,.388-.591-.287-1.39-1.545-2.398-2.989-2.398s-2.702,1.009-2.989,2.398c-.057,.271,.117,.535,.388,.591Zm15.602-4.004v9.515c0,2.481-2.019,4.5-4.5,4.5H6.5c-2.481,0-4.5-2.019-4.5-4.5V4.5C2,2.019,4.019,0,6.5,0h5.515c1.735,0,3.368,.676,4.597,1.904l3.484,3.485c1.228,1.227,1.904,2.859,1.904,4.596Zm-8-3.485c0,.827,.673,1.5,1.5,1.5h5.121c-.273-.704-.682-1.354-1.232-1.904l-3.484-3.485c-.551-.55-1.2-.959-1.904-1.231V6.5Zm7,3.485c0-.335-.038-.663-.096-.985h-5.404c-1.379,0-2.5-1.122-2.5-2.5V1.096c-.323-.058-.651-.096-.985-.096H6.5c-1.93,0-3.5,1.57-3.5,3.5v15c0,1.93,1.57,3.5,3.5,3.5h11c1.93,0,3.5-1.57,3.5-3.5V9.985Z"/>
</svg>
